Coordinates
version=1
nRows=16
nColumns=32
inDegrees=yes

Units are S.I. units (second, meters, Newtons, ...)
If the header above contains a line with 'inDegrees', this indicates whether rotational values are in degrees (yes) or radians (no).

endheader
time	pelvis_tilt	pelvis_list	pelvis_rotation	pelvis_tx	pelvis_ty	pelvis_tz	hip_flexion_r	hip_adduction_r	hip_rotation_r	knee_angle_r	knee_adduction_r	med_cond_adduction_r	lat_cond_adduction_r	patella_r_constrained_knee_angle	hip_flexion_l	hip_adduction_l	hip_rotation_l	knee_angle_l	knee_adduction_l	med_cond_adduction_l	lat_cond_adduction_l	patella_l_constrained_knee_angle	lumbar_extension	lumbar_bending	lumbar_rotation	ankle_angle_r	subtalar_angle_r	mtp_angle_r	ankle_angle_l	subtalar_angle_l	mtp_angle_l
      2.34500000	    -71.19358403	     -4.80173108	     10.96799691	      0.07190043	      0.66217666	     -0.37828068	    107.47496128	     -7.64211077	     -0.43280355	    -25.27201835	     -9.44470463	     -0.00000000	     -0.00000000	     -0.44107993	     77.55113215	      5.24634792	      2.28503526	    -48.65509714	     -3.75699648	     -0.00000000	     -0.00000000	     -0.84919164	     83.15123290	    -13.31648740	    -14.01156945	      5.11511887	      8.07837272	      0.00000000	     18.22230455	     16.75112588	      0.00000000
      2.35000000	    -70.88218821	     -4.90076924	     10.79832733	      0.07976056	      0.66109728	     -0.37668374	    107.36445164	     -7.28663888	     -0.51636681	    -26.66504018	     -9.38828286	      0.00000000	      0.00000000	     -0.46539275	     77.23538181	      4.71801972	      2.58243491	    -49.94196967	     -3.44910022	     -0.00000000	     -0.00000000	     -0.87165181	     82.94253373	    -12.99884655	    -14.18314241	      4.67042843	      8.45829504	      0.00000000	     17.51485489	     16.87255127	     -0.00000000
      2.35500000	    -70.53435678	     -5.07185563	     10.47734918	      0.08762527	      0.66006090	     -0.37510116	    107.18178954	     -6.81094567	     -0.74623658	    -28.01896706	     -9.33348521	     -0.00000000	     -0.00000000	     -0.48902323	     76.97001764	      4.04063940	      3.02842504	    -51.39772922	     -3.05740234	     -0.00000000	     -0.00000000	     -0.89705960	     82.68839606	    -12.41820311	    -14.34691463	      3.88576633	      9.09468532	      0.00000000	     16.72818532	     16.77827746	     -0.00000000
      2.36000000	    -70.14410246	     -5.31959678	     10.08699769	      0.09547548	      0.65907555	     -0.37340860	    106.90345841	     -6.24604391	     -0.94129309	    -29.34106187	     -9.28284943	      0.00000000	      0.00000000	     -0.51209814	     76.75921345	      3.25443517	      3.59659536	    -52.99346343	     -2.58573385	     -0.00000000	     -0.00000000	     -0.92491042	     82.36154941	    -11.67645765	    -14.70094805	      3.20229398	      9.03534033	     -0.00000000	     15.71117336	     16.74950403	     -0.00000000
      2.36500000	    -69.71133459	     -5.31553905	      9.70837295	      0.10334116	      0.65817252	     -0.37183707	    106.60853093	     -5.66586018	     -0.84290124	    -30.72040140	     -9.20998343	      0.00000000	      0.00000000	     -0.53617215	     76.49457699	      2.60385041	      4.01127682	    -54.64144476	     -2.05071253	      0.00000000	      0.00000000	     -0.95367312	     81.99913142	    -11.09948174	    -14.68713386	      2.39802664	      8.76124415	     -0.00000000	     14.35948996	     16.59758857	     -0.00000000
      2.37000000	    -69.23911398	     -5.69482487	      9.12469957	      0.11109252	      0.65730861	     -0.37018762	    106.19550044	     -4.92746769	     -1.11471820	    -31.96055354	     -9.15827386	     -0.00000000	     -0.00000000	     -0.55781689	     76.39636736	      1.60535108	      4.84741844	    -56.52355594	     -1.36376678	     -0.00000000	     -0.00000000	     -0.98652216	     81.55416737	     -9.97132263	    -15.14309337	      1.85123044	      8.75991517	      0.00000000	     12.97667625	     16.59235659	     -0.00000000
      2.37500000	    -68.75616014	     -5.95090636	      8.49862278	      0.11881672	      0.65655248	     -0.36852900	    105.76270057	     -4.12298425	     -1.23469606	    -33.18824487	     -9.10006353	     -0.00000000	     -0.00000000	     -0.57924415	     76.31230701	      0.62922971	      5.65176275	    -58.44103579	     -0.59883000	     -0.00000000	     -0.00000000	     -1.01998849	     81.08873021	     -8.85581572	    -15.42994020	      1.27615022	      8.59958645	     -0.00000000	     11.33398014	     16.36693426	      0.00000000
      2.38000000	    -68.23437955	     -6.20972579	      7.86907296	      0.12642033	      0.65586618	     -0.36689599	    105.27955263	     -3.29540374	     -1.24819419	    -34.39752668	     -9.03558825	     -0.00000000	     -0.00000000	     -0.60035010	     76.26493783	     -0.33888375	      6.53302368	    -60.44666220	      0.24558165	      0.00000000	      0.00000000	     -1.05499328	     80.53225052	     -7.73343290	    -15.69017802	      0.83720147	      7.76862270	      0.00000000	      9.49206464	     16.12252709	     -0.00000000
      2.38500000	    -67.70402755	     -6.48123390	      7.08379198	      0.13405460	      0.65530887	     -0.36518274	    104.73474258	     -2.31427146	     -1.26334034	    -35.50002778	     -8.95107516	      0.00000000	      0.00000000	     -0.61959237	     76.25807097	     -1.45133006	      7.42528457	    -62.48745835	      1.14159276	      0.00000000	      0.00000000	     -1.09061189	     79.96831800	     -6.40684006	    -15.95874336	      0.53184426	      7.03491089	     -0.00000000	      7.53143590	     15.85866934	      0.00000000
      2.39000000	    -67.17442670	     -6.85819466	      6.34614321	      0.14147725	      0.65483547	     -0.36366369	    104.19419163	     -1.39638316	     -1.40842545	    -36.60059724	     -8.89252003	     -0.00000000	     -0.00000000	     -0.63880093	     76.35900310	     -2.53224152	      8.55499707	    -64.58878168	      2.15856785	     -0.00000000	     -0.00000000	     -1.12728690	     79.37777954	     -4.99468057	    -16.25137632	      0.34220735	      6.26283399	     -0.00000000	      5.44288719	     15.17794753	     -0.00000000
      2.39500000	    -66.60452654	     -7.22464039	      5.53950558	      0.14890906	      0.65454779	     -0.36215358	    103.57908198	     -0.42045413	     -1.54985578	    -37.63607233	     -8.79113963	     -0.00000000	     -0.00000000	     -0.65687338	     76.45800732	     -3.65693426	      9.66194137	    -66.68307002	      3.17791120	      0.00000000	      0.00000000	     -1.16383913	     78.74201584	     -3.49544195	    -16.53256175	      0.42142534	      5.63877062	      0.00000000	      3.43141061	     14.58649146	      0.00000000
      2.40000000	    -66.07035482	     -7.22682212	      4.76883924	      0.15627459	      0.65435477	     -0.36066112	    103.00378820	      0.54343916	     -1.28199756	    -38.68745568	     -8.60921595	      0.00000000	      0.00000000	     -0.67522348	     76.51038734	     -4.56690074	     10.37340070	    -68.67920787	      4.10715585	     -0.00000000	     -0.00000000	     -1.19867831	     78.11662317	     -2.34315461	    -16.25749354	      0.64042683	      4.91774819	     -0.00000000	      1.55524149	     13.56091227	     -0.00000000
      2.40500000	    -65.48861980	     -7.98562984	      3.83756030	      0.16352592	      0.65438582	     -0.35930177	    102.26388878	      1.60757984	     -1.81770468	    -39.48649451	     -8.50107037	     -0.00000000	     -0.00000000	     -0.68916934	     76.81622185	     -5.93292021	     11.71621129	    -70.80986695	      5.05052527	      0.00000000	      0.00000000	     -1.23586532	     77.44325678	     -0.33325246	    -16.99195836	      0.94286037	      3.60727797	     -0.00000000	     -0.31517219	     13.68581113	     -0.00000000
      2.41000000	    -64.96582331	     -8.39463600	      2.99519731	      0.17070195	      0.65454716	     -0.35814551	    101.60168053	      2.55532952	     -2.12775276	    -40.30983960	     -8.32981653	      0.00000000	      0.00000000	     -0.70353942	     77.08736099	     -7.00850534	     12.69743353	    -72.79492011	      5.87447898	     -0.00000000	     -0.00000000	     -1.27051103	     76.82273516	      1.33904845	    -17.22043083	      1.40547554	      3.09307904	      0.00000000	     -1.93621147	     12.85105571	     -0.00000000
      2.41500000	    -64.45988426	     -8.79777370	      2.17831413	      0.17776483	      0.65489567	     -0.35708698	    100.91232329	      3.46508827	     -2.43611223	    -41.04965639	     -8.12379611	     -0.00000000	     -0.00000000	     -0.71645166	     77.40478496	     -8.02214035	     13.59608154	    -74.69999761	      6.58924048	     -0.00000000	     -0.00000000	     -1.30376091	     76.21607108	      2.96599582	    -17.39084664	      1.99251158	      2.60590229	      0.00000000	     -3.26808647	     11.91212785	     -0.00000000
      2.42000000	    -63.99538450	     -9.15916423	      1.37439714	      0.18477534	      0.65540785	     -0.35618531	    100.21777738	      4.32675041	     -2.78070374	    -41.70624486	     -7.88403484	     -0.00000000	     -0.00000000	     -0.72791129	     77.76869742	     -8.96695983	     14.29270766	    -76.50464052	      7.12936576	     -0.00000000	     -0.00000000	     -1.33525787	     75.65198475	      4.58129434	    -17.49190315	      2.61453439	      2.28394567	     -0.00000000	     -4.34325054	     11.15903442	      0.00000000
